<svg width="196" height="196" viewBox="0 0 196 196" fill="none" xmlns="http://www.w3.org/2000/svg">
<path fill-rule="evenodd" clip-rule="evenodd" d="M0.5 98C0.5 44.1523 44.1523 0.5 98 0.5C151.848 0.5 195.5 44.1523 195.5 98C195.5 151.848 151.848 195.5 98 195.5C44.1523 195.5 0.5 151.848 0.5 98ZM97.5 102C116.002 102 131 87.0015 131 68.5C131 49.9985 116.002 35 97.5 35C78.9985 35 64 49.9985 64 68.5C64 87.0015 78.9985 102 97.5 102ZM149.366 140.117C150.053 139.461 150.202 138.412 149.714 137.593C139.942 121.202 120.228 110 97.5005 110C74.7718 110 55.0578 121.203 45.2864 137.594C44.7982 138.413 44.9472 139.461 45.6338 140.118C59.1644 153.064 77.4168 161 97.4996 161C117.583 161 135.835 153.063 149.366 140.117Z" fill="#BABABA"/>
</svg>
